<?xml version="1.0" encoding="UTF-8"?>
<svg width="91px" height="39px" viewBox="0 0 91 39" version="1.1" xmlns="http://www.w3.org/2000/svg" xmlns:xlink="http://www.w3.org/1999/xlink">
    <!-- Generator: Sketch 46.2 (44496) - http://www.bohemiancoding.com/sketch -->
    <title>NEO-logo</title>
    <desc>Created with Sketch.</desc>
    <defs></defs>
    <g id="Page-1" stroke="none" stroke-width="1" fill="none" fill-rule="evenodd">
        <g id="Login-Horizon" transform="translate(-595.000000, -160.000000)" fill="#EB2227">
            <g id="NEO-logo" transform="translate(595.000000, 160.000000)">
                <path d="M38.1603053,16.9220339 L38.1603053,13.0220339 C38.1603053,8.72542373 41.6666667,5.2220339 45.9669211,5.2220339 L46.0330789,5.2220339 C50.3333333,5.2220339 53.8396947,8.65932203 53.8396947,13.0220339 L53.8396947,16.9220339 L38.1603053,16.9220339 Z M56.5521628,22.1440678 C57.9414758,22.1440678 59,21.020339 59,19.6983051 L59,13.0220339 C59,5.81694915 53.1119593,0 46.0330789,0 L45.9669211,0 C38.821883,0 33,5.88305085 33,13.0220339 L33,16.9220339 L33,22.1440678 L33,25.9779661 L33,26.0440678 C33,33.1830508 38.821883,39 45.9669211,39 L46.0330789,39 C52.7150127,39 58.3384224,33.7779661 58.9338422,27.3 L53.7073791,27.3 C53.1119593,31.0016949 49.870229,33.8440678 46.0330789,33.8440678 L45.9669211,33.8440678 C41.6666667,33.8440678 38.1603053,30.340678 38.1603053,26.0440678 L38.1603053,25.9779661 L38.1603053,22.1440678 L53.8396947,22.1440678 L56.5521628,22.1440678 Z" id="Fill-1"></path>
                <path d="M13.4658228,0 C13.3974684,0 13.3974684,0 13.4658228,0 C6.01518987,0 0,5.87309645 0,13 L0,39 L5.4,39 L5.4,13 C5.4,8.7106599 9.02278481,5.14720812 13.4658228,5.14720812 L13.5341772,5.14720812 C17.9772152,5.14720812 21.6,8.64467005 21.6,13 L21.6,39 L27,39 L27,13 C26.9316456,5.8071066 20.8481013,0 13.4658228,0" id="Fill-3"></path>
                <path d="M78.0330789,5.2220339 L78.0330789,5.2220339 C73.7328244,5.2220339 70.1603053,8.65932203 70.1603053,13.0220339 L70.1603053,25.9779661 L70.1603053,26.0440678 C70.1603053,30.340678 73.6666667,33.8440678 77.9669211,33.8440678 L78.0330789,33.8440678 C82.3333333,33.8440678 85.8396947,30.340678 85.8396947,26.0440678 L85.8396947,13.0220339 C85.8396947,8.65932203 82.2671756,5.2220339 78.0330789,5.2220339 L78.0330789,5.2220339 Z M91,25.9779661 C91,26.0440678 91,26.0440678 91,25.9779661 C91,33.1830508 85.1119593,39 78.0330789,39 L77.9669211,39 C70.821883,39 65,33.1169492 65,26.0440678 L65,25.9779661 L65,13.0220339 C65,5.81694915 70.8880407,0 77.9669211,0 L78.0330789,0 C85.178117,0 91,5.88305085 91,13.0220339 L91,25.9779661 Z" id="Fill-5"></path>
            </g>
        </g>
    </g>
</svg>